Coordinates
version=1
nRows=10
nColumns=40
inDegrees=yes

Units are S.I. units (second, meters, Newtons, ...)
Angles are in degrees.

endheader
time	pelvis_tilt	pelvis_list	pelvis_rotation	pelvis_tx	pelvis_ty	pelvis_tz	hip_flexion_r	hip_adduction_r	hip_rotation_r	knee_angle_r	knee_angle_r_beta	ankle_angle_r	subtalar_angle_r	mtp_angle_r	hip_flexion_l	hip_adduction_l	hip_rotation_l	knee_angle_l	knee_angle_l_beta	ankle_angle_l	subtalar_angle_l	mtp_angle_l	lumbar_extension	lumbar_bending	lumbar_rotation	arm_flex_r	arm_add_r	arm_rot_r	elbow_flex_r	pro_sup_r	wrist_flex_r	wrist_dev_r	arm_flex_l	arm_add_l	arm_rot_l	elbow_flex_l	pro_sup_l	wrist_flex_l	wrist_dev_l
     45.88442857	     -5.79967573	     -5.32359527	      3.05106614	      0.93401282	      0.92801755	      0.52897845	     12.89839415	      4.26411851	    -19.31588831	     17.00120526	     17.00120526	     13.37206145	      3.86393304	     -1.75597095	     44.91489320	    -14.28487267	      0.92093289	     62.28476362	     62.28476362	      8.85872623	    -17.59912961	     10.90523603	    -13.85827642	      6.75462466	      4.82227597	     44.63833965	    -17.05837231	      6.64445683	     53.73192026	     45.16750452	      0.00000000	      0.00000000	    -10.51870343	     -7.21778304	     -0.39518578	     30.30765996	     46.56392002	      0.00000000	      0.00000000
     45.89635714	     -5.88254697	     -5.46286518	      3.11704859	      0.93267450	      0.92787599	      0.52919340	     12.20955564	      4.55383336	    -19.36159608	     16.41959537	     16.41959537	     13.42469037	      4.08583159	     -2.28230730	     45.20685325	    -14.17547227	      0.96270183	     59.30523520	     59.30523520	      8.54903562	    -17.32486842	     10.62604737	    -13.89842859	      6.88798803	      5.28980241	     45.12993121	    -17.93736527	      6.96643643	     59.26974922	     44.98328650	      0.00000000	      0.00000000	    -11.44972801	     -7.13496528	      0.87710162	     29.17876572	     46.31124339	      0.00000000	      0.00000000
     45.90828571	     -5.98922906	     -5.54964668	      3.16502037	      0.93133857	      0.92771815	      0.52925596	     11.56155807	      4.78083815	    -19.30705836	     15.88026255	     15.88026255	     13.63664535	      4.26840448	     -2.30808985	     45.33389777	    -13.94442997	      1.04131076	     56.14247784	     56.14247784	      8.46677242	    -16.86856441	     10.91043887	    -13.83969309	      6.97152932	      5.00370479	     46.90959282	    -17.34866485	      6.79329999	     61.11190084	     44.94000329	      0.00000000	      0.00000000	    -12.78311972	     -6.90170952	      1.21877635	     28.52234735	     46.22906735	      0.00000000	      0.00000000
     45.92021429	     -6.11723365	     -5.66038427	      3.24701532	      0.93003771	      0.92743486	      0.52911598	     10.93264544	      4.99963355	    -19.34137811	     15.34970681	     15.34970681	     13.84632296	      4.56610671	     -2.37979011	     45.34119788	    -13.70478414	      1.13604701	     52.83387456	     52.83387456	      8.42463668	    -16.09354313	     11.01021815	    -13.79951308	      7.12606448	      4.69056962	     48.41916983	    -16.79259064	      6.63821866	     63.47753346	     44.87772665	      0.00000000	      0.00000000	    -14.10636643	     -6.64092468	      1.58534882	     28.03714419	     46.14083118	      0.00000000	      0.00000000
     45.93214286	     -6.28496289	     -5.82442706	      3.29072929	      0.92891381	      0.92698830	      0.52895076	     10.36138096	      5.24462743	    -19.52799673	     14.86780372	     14.86780372	     13.99650255	      5.05490329	     -2.66848620	     45.17578555	    -13.50190527	      1.28060453	     49.31390243	     49.31390243	      8.06743011	    -15.19982156	     10.00699391	    -13.72679756	      7.24551564	      5.28699914	     48.70752700	    -17.47867386	      6.02055421	     68.52551138	     44.76723182	      0.00000000	      0.00000000	    -15.12627461	     -6.68571614	      3.01862910	     28.28318375	     45.86168906	      0.00000000	      0.00000000
     45.94407143	     -6.45908975	     -5.89554311	      3.30213424	      0.92784454	      0.92656718	      0.52862544	      9.80283800	      5.40207187	    -19.50262465	     14.41699964	     14.41699964	     14.21589610	      5.31256253	     -2.69457881	     44.84496475	    -13.22353539	      1.29856113	     45.75623006	     45.75623006	      8.21323907	    -13.99226291	     10.30965077	    -13.56542411	      7.28497789	      5.11493712	     50.16065287	    -16.94589758	      5.90005199	     70.07306143	     44.73094931	      0.00000000	      0.00000000	    -16.21062128	     -6.44324987	      3.28219346	     27.89774783	     45.79942776	      0.00000000	      0.00000000
     45.95600000	     -6.51782916	     -6.12656429	      3.36841565	      0.92710506	      0.92612590	      0.52813795	      9.03119236	      5.70040012	    -19.84824163	     13.83770494	     13.83770494	     14.43571387	      6.13352579	     -2.75282837	     44.31112416	    -13.09987633	      1.34425847	     42.22291384	     42.22291384	      8.22218175	    -12.61360872	     10.16168438	    -13.59047385	      7.55216004	      5.25822110	     50.48651820	    -16.96248152	      5.33092248	     74.55229900	     44.63970394	      0.00000000	      0.00000000	    -17.40472955	     -6.42228084	      4.42594053	     28.47294721	     45.57929988	      0.00000000	      0.00000000
     45.96792857	     -6.60759296	     -6.23499263	      3.33945249	      0.92652386	      0.92566000	      0.52757347	      8.32336831	      5.89199057	    -19.83417490	     13.33977938	     13.33977938	     14.65960742	      6.49953737	     -2.75344651	     43.59914168	    -12.90984483	      1.13726882	     38.68310626	     38.68310626	      8.33015986	    -11.33043615	     10.66496726	    -13.47645575	      7.65612728	      5.01594404	     51.55461776	    -16.30800494	      5.28060779	     76.28317859	     44.59627604	      0.00000000	      0.00000000	    -18.43512283	     -6.16448464	      4.73885698	     28.22079977	     45.51245376	      0.00000000	      0.00000000
     45.97985714	     -6.70913063	     -6.47767432	      3.34705322	      0.92616771	      0.92495546	      0.52683462	      7.57451668	      6.19345895	    -20.08711939	     12.77450334	     12.77450334	     14.93338364	      7.29565289	     -2.61860997	     42.89965461	    -12.82948985	      0.90495842	     35.38796108	     35.38796108	      8.52576676	    -10.00007280	     11.41779626	    -13.40436234	      7.92049742	      5.41280537	     51.61085645	    -16.53582833	      4.58005386	     80.60241956	     44.54363427	      0.00000000	      0.00000000	    -19.39250178	     -6.29262721	      6.40521968	     29.10754698	     45.23746967	      0.00000000	      0.00000000
     45.99178571	     -6.90780227	     -6.78240038	      3.26548560	      0.92587311	      0.92391084	      0.52602265	      7.09892967	      6.52750413	    -20.09707541	     12.52793356	     12.52793356	     15.18343950	      7.55155225	     -2.69880721	     42.23346903	    -12.82794784	      0.51468942	     32.27979710	     32.27979710	      8.45438754	     -9.05152045	     12.05582484	    -13.06082890	      8.28694367	      5.45113449	     52.53725671	    -16.23476547	      4.53625869	     81.55593290	     44.52113826	      0.00000000	      0.00000000	    -20.12971029	     -5.97218481	      6.53951857	     28.98625505	     45.20640935	      0.00000000	      0.00000000
